<?xml version="1.0" encoding="UTF-8" standalone="no"?>
<!-- Created with Inkscape (http://www.inkscape.org/) -->

<svg
   xmlns:dc="http://purl.org/dc/elements/1.1/"
   xmlns:cc="http://creativecommons.org/ns#"
   xmlns:rdf="http://www.w3.org/1999/02/22-rdf-syntax-ns#"
   xmlns:svg="http://www.w3.org/2000/svg"
   xmlns="http://www.w3.org/2000/svg"
   xmlns:sodipodi="http://sodipodi.sourceforge.net/DTD/sodipodi-0.dtd"
   xmlns:inkscape="http://www.inkscape.org/namespaces/inkscape"
   width="800"
   height="3733"
   id="svg2"
   version="1.1"
   inkscape:version="0.48.3.1 r9886"
   sodipodi:docname="initial-phrase.svg">
  <defs
     id="defs4" />
  <sodipodi:namedview
     id="base"
     pagecolor="#ffffff"
     bordercolor="#666666"
     borderopacity="1.0"
     inkscape:pageopacity="0.0"
     inkscape:pageshadow="2"
     inkscape:zoom="6.9263328"
     inkscape:cx="23.251935"
     inkscape:cy="3352.3026"
     inkscape:document-units="px"
     inkscape:current-layer="layer2"
     showgrid="false"
     inkscape:window-width="1680"
     inkscape:window-height="987"
     inkscape:window-x="1912"
     inkscape:window-y="-8"
     inkscape:window-maximized="1" />
  <metadata
     id="metadata7">
    <rdf:RDF>
      <cc:Work
         rdf:about="">
        <dc:format>image/svg+xml</dc:format>
        <dc:type
           rdf:resource="http://purl.org/dc/dcmitype/StillImage" />
      </cc:Work>
    </rdf:RDF>
  </metadata>
  <g
     inkscape:label="Layer 1"
     inkscape:groupmode="layer"
     id="layer1"
     transform="translate(0,2680.6378)"
     style="display:inline">
    <rect
       style="opacity:0.50000000000000000;fill:#e9afdd;display:inline"
       id="level-back"
       width="800"
       height="798.98987"
       x="0"
       y="-2680.2507"
       inkscape:label="#rect2986" />
  </g>
  <g
     inkscape:groupmode="layer"
     id="layer2"
     inkscape:label="1st level"
     transform="translate(0,-267)"
     style="display:inline">
    <path
       sodipodi:type="arc"
       style="fill:#782144;fill-opacity:1;stroke:none"
       id="level-4-check-point-0"
       sodipodi:cx="411.13208"
       sodipodi:cy="2491.8423"
       sodipodi:rx="50.507626"
       sodipodi:ry="50.507626"
       d="m 461.63971,2491.8423 a 50.507626,50.507626 0 1 1 -101.01526,0 50.507626,50.507626 0 1 1 101.01526,0 z"
       transform="matrix(0.83999999,0,0,0.83999999,60.750462,528.04299)"
       inkscape:label="#path3845" />
    <path
       transform="matrix(0.87500001,0,0,0.87500001,-250.92899,1017.3259)"
       d="m 459.99999,1270 c 0,25.2473 -20.46698,45.7143 -45.71428,45.7143 -25.24731,0 -45.71429,-20.467 -45.71429,-45.7143 0,-25.2473 20.46698,-45.7143 45.71429,-45.7143 25.2473,0 45.71428,20.467 45.71428,45.7143 z"
       sodipodi:ry="45.714287"
       sodipodi:rx="45.714287"
       sodipodi:cy="1270"
       sodipodi:cx="414.28571"
       id="level-3-check-point-0"
       style="fill:#ab37c8;fill-opacity:1;stroke:none"
       sodipodi:type="arc"
       inkscape:label="#path3816" />
    <path
       sodipodi:type="arc"
       style="fill:#ab37c8;fill-opacity:1;stroke:none"
       id="level-3-check-point-1"
       sodipodi:cx="414.28571"
       sodipodi:cy="1270"
       sodipodi:rx="45.714287"
       sodipodi:ry="45.714287"
       d="m 459.99999,1270 c 0,25.2473 -20.46698,45.7143 -45.71428,45.7143 -25.24731,0 -45.71429,-20.467 -45.71429,-45.7143 0,-25.2473 20.46698,-45.7143 45.71429,-45.7143 25.2473,0 45.71428,20.467 45.71428,45.7143 z"
       transform="matrix(0.87500003,0,0,0.87500003,324.78601,1017.3259)"
       inkscape:label="#path3826" />
    <path
       sodipodi:type="arc"
       style="fill:#7137c8;fill-opacity:1;stroke:none"
       id="level-2-check-point-0"
       sodipodi:cx="414.28571"
       sodipodi:cy="1270"
       sodipodi:rx="45.714287"
       sodipodi:ry="45.714287"
       d="m 459.99999,1270 c 0,25.2473 -20.46698,45.7143 -45.71428,45.7143 -25.24731,0 -45.71429,-20.467 -45.71429,-45.7143 0,-25.2473 20.46698,-45.7143 45.71429,-45.7143 25.2473,0 45.71428,20.467 45.71428,45.7143 z"
       transform="matrix(1.0091529,0,0,1.0091529,-17.934768,255.52317)"
       inkscape:label="#path3801" />
    <path
       style="fill:#cc48b2;fill-opacity:0.87843138;stroke:none"
       d="m 5e-5,1065.7189 0,588.5624 800,0 0,-588.5624 -800,0 z m 400,418.5624 c 29.19219,0 52.84375,23.6828 52.84375,52.875 0,29.1922 -23.65156,52.8437 -52.84375,52.8437 -29.19219,0 -52.875,-23.6515 -52.875,-52.8437 0,-29.1922 23.68281,-52.875 52.875,-52.875 z"
       id="level-2-terrain"
       inkscape:connector-curvature="0"
       inkscape:label="#rect3798" />
    <path
       style="fill:#c837ab;fill-opacity:0.75294118;stroke:none"
       d="m 641.31255,355.71875 0,15.06268 -17.625,-1.027 0,-12.04392 -17.65625,-1.49382 -7.03125,218.25327 10.625,1.49381 c -64.62384,-7.33118 -141.65854,-13.07092 -224.75,-13.07092 -57.49061,0 -109.76609,3.08765 -155.96875,7.71807 l 4.84375,-0.65354 -24.15625,-115.42869 14.09375,-4.9794 -73.5625,-60.71754 -41.3125,78.76786 18.625,-2.02288 15.125,116.36232 C 55.624674,596.13211 2.784571,613.33904 -0.13434818,615.08318 L 0.1563,851.2934 l -0.15625,0 0,20.69562 0,193.72978 800,0 0,-193.72978 0,-20.69562 0,-244.20838 c 0,0 -27.90659,-6.66448 -75.4375,-14.81371 l 12.46875,1.77391 0,-222.76585 -21.65625,-9.02516 0.5,12.54186 -14.625,-1.52494 -1,-13.0398 -24.6875,-1.99176 0,14.53362 -15.09375,0 0,-14.03568 z"
       id="level-1-terrain"
       inkscape:connector-curvature="0"
       inkscape:label="#path2988"
       sodipodi:nodetypes="cccccccsccccccccccccccccccccccccccccc" />
    <path
       style="font-size:medium;font-style:normal;font-variant:normal;font-weight:normal;font-stretch:normal;text-indent:0;text-align:start;text-decoration:none;line-height:normal;letter-spacing:normal;word-spacing:normal;text-transform:none;direction:ltr;block-progression:tb;writing-mode:lr-tb;text-anchor:start;baseline-shift:baseline;color:#000000;fill:#eed7f4;fill-opacity:1;fill-rule:nonzero;stroke:none;stroke-width:9.30000019000000040;marker:none;visibility:visible;display:inline;overflow:visible;enable-background:accumulate;font-family:Sans;-inkscape-font-specification:Sans"
       d="m 190,948.93755 18.59375,0 0,-9.3125 -18.59375,0 z m 27.90625,0 18.59375,0 0,-9.3125 -18.59375,0 z m 27.90625,0 18.59375,0 0,-9.3125 -18.59375,0 z m 27.875,0 18.625,0 0,-9.3125 -18.625,0 z m 27.90625,0 18.59375,0 0,-9.3125 -18.59375,0 z m 27.90625,0 18.59375,0 0,-9.3125 -18.59375,0 z m 27.90625,0 18.59375,0 0,-9.3125 -18.59375,0 z m 27.90625,0 18.59375,0 0,-9.3125 -18.59375,0 z m 27.875,0 18.625,0 0,-9.3125 -18.625,0 z m 27.90625,0 18.59375,0 0,-9.3125 -18.59375,0 z m 27.90625,0 18.59375,0 0,-9.3125 -18.59375,0 z m 27.90625,0 18.59375,0 0,-9.3125 -18.59375,0 z m 27.90625,0 18.59375,0 0,-9.3125 -18.59375,0 z m 27.875,0 18.625,0 0,-9.3125 -18.625,0 z m 27.90625,0 18.59375,0 0,-9.3125 -18.59375,0 z m 27.90625,0 4.34375,0 0,-9.3125 -4.34375,0 z"
       id="level-1-check-point-0"
       inkscape:connector-curvature="0"
       inkscape:label="#path3785"
       isLine="1" />
    <g
       id="level-1-title">
      <path
         inkscape:connector-curvature="0"
         id="text3017"
         d="m 280.9375,968 c -3.43647,0.40562 -6.98148,1.40919 -9.71875,3.59375 1.8227,-4.91562 -13.78845,-0.48065 -11.321,3.5714 0.94272,7.00145 4.1613,8.02522 3.42658,15.66403 -0.84953,7.20354 10.46746,0.4467 7.13305,-5.16564 -0.83456,-3.9133 2.92359,0.60723 4.44887,0.83646 -1.65714,2.43573 -5.98055,3.36288 -2.07868,6.69201 1.28416,4.93899 5.1103,-0.61632 7.26618,-2.34826 3.0329,-2.56922 3.06206,-7.68688 1.125,-10.28125 4.3813,-1.23026 1.26943,8.96706 2.61736,12.37349 2.26865,4.01036 9.9677,-2.81783 7.198,-8.21051 -2.32063,-7.45507 5.21812,-7.61636 4.02839,-14.06923 1.14465,-6.84083 -13.28359,4.33032 -11.65182,-2.31848 0.70306,-1.35865 -1.95599,-0.0403 -2.47318,-0.33777 z m 161.25,0.65625 c -4.26278,2.32758 -14.95526,-0.25226 -13.32923,6.59082 -1.45828,8.21238 6.40708,2.29287 4.19144,11.61855 -1.8642,7.3324 3.24485,9.43423 7.21776,4.13557 0.28789,-2.93396 -0.25478,-7.28581 1.23253,-2.81369 4.14474,8.56454 17.22456,6.49715 21.125,-1.3125 4.88534,-6.69949 0.70813,-17.98301 -8.09375,-17.9375 -3.73079,-0.0981 -7.36796,1.45644 -9.96875,4.09375 -0.50453,-2.18356 1.7242,-6.39591 -2.375,-4.375 z m -118.34375,0 c -4.44374,0.49346 -10.23287,2.84745 -13.78125,2.5 0.78672,-5.16094 -12.62444,-0.95379 -8.27028,5.12007 0.309,6.20997 0.61593,12.42004 0.92653,18.62993 5.97511,-4.5555 8.8749,-3.48601 10.86958,-0.63876 4.04281,-2.81952 11.48475,-3.27514 10.22417,-9.76749 1.46286,5.75127 2.60473,12.20315 9.40854,7.18951 2.24898,-10.9246 0.86599,1.00251 3.26286,3.04232 4.49344,-1.68234 12.25423,-9.06042 10.4536,0.17442 3.58274,-3.01636 11.27223,-3.32429 11.99195,-8.27757 3.41316,-9.46347 -8.90553,1.54101 -4.97357,-8.96494 1.66537,-7.40449 -0.41109,-9.95212 -5.5518,-9.13643 -3.03553,-0.0848 -8.89912,3.02372 -9.88648,1.15727 -0.60283,-3.27318 -11.53868,2.2411 -9.62512,3.36714 -0.48713,-4.89678 -2.13456,-3.42422 -5.04873,-4.39547 z m 173.65625,0 c -3.02567,-0.40237 -10.08494,4.2152 -9.72748,0.13301 -5.09526,-0.78429 -9.90699,2.50022 -15.08952,3.42681 -4.10296,2.4604 0.41187,11.1441 -0.21933,16.11014 -1.62502,7.97495 4.55416,5.66218 8.78633,3.39254 5.707,-0.98525 4.59029,5.96544 12.14921,-0.61718 6.57711,-6.11996 2.17162,-0.90989 5.61425,2.9294 7.30572,0.5437 4.10336,-8.08907 12.42404,-5.53097 -1.58383,10.17558 5.78545,3.89709 11.15625,1.28125 2.7819,-3.38973 0.85222,-8.80792 2.59375,-12.96875 -8.95016,2.01164 -4.49001,2.18927 0.28125,-1.71875 1.19088,-3.73831 2.53839,-8.60859 -2.91808,-6.14763 -4.00003,0.19355 -8.37581,3.66433 -11.58192,0.39763 -3.70458,-1.38922 -8.2111,1.06952 -11.15625,1.5625 0.58196,-2.94473 0.84618,-2.99828 -2.3125,-2.25 z m -80.625,-0.0312 c -4.01011,0.26813 -7.73991,2.62845 -9.96875,5.9375 2.41813,-7.76025 -3.00707,-4.5523 -7.59375,-4.3125 -5.71093,-3.38368 -12.03297,0.94027 -17.375,3.0625 0.78626,6.44788 3.05746,10.20404 3.25794,16.33718 -1.02063,6.02571 2.94853,4.52179 6.49206,2.25657 2.8361,-1.69425 5.37808,-3.9527 7.1875,-6.71875 -1.23902,6.81839 1.86048,11.72021 7.125,5.8125 1.88785,2.39277 5.29748,2.7189 8,1.6875 1.15086,5.32595 10.00032,-1.88613 7.36801,-7.14878 1.7367,-6.69141 0.74506,-10.66468 -1.59334,-11.71713 1.34121,-4.02676 1.48186,-5.81118 -2.89967,-5.19659 z m -106.25,14.625 c -2.85485,-2.21523 0.17304,-13.79035 0,0 z M 441.75,976.9063 c -1.2214,3.60543 -1.5012,1.01448 0,0 z m -68.0625,0.90625 c -6.56328,1.09741 -10.85656,3.82427 -8.9246,11.03117 1.03873,1.82382 9.83313,-3.19553 11.39335,-5.84367 -0.78033,-2.47212 2.90244,-8.65296 -2.46875,-5.1875 z m -27.625,-0.28125 c -5.89583,1.94807 -3.26326,0.16137 0,0 z m -24.5,0.1875 c -5.24913,1.83657 -2.90963,0.14614 0,0 z M 495.125,977.75 c -5.48599,1.77904 -2.60335,0.15369 0,0 z m -102,-0.0937 c -0.0329,5.5093 -2.21167,2.24667 0,0 z m 60.28125,0.125 c 5.96426,0.61917 1.96037,10.92554 -3.125,8.6875 -3.84509,-2.27353 -0.86546,-8.70814 3.125,-8.6875 z m -39.4375,7.28125 c -1.67122,1.45075 -3.3109,0.15216 0,0 z"
         style="font-size:40px;font-style:normal;font-variant:normal;font-weight:normal;font-stretch:normal;line-height:125%;letter-spacing:0px;word-spacing:0px;fill:#2b0011;fill-opacity:1;stroke:none;font-family:CrashLanding BB;-inkscape-font-specification:CrashLanding BB" />
      <text
         inkscape:label="#text3791"
         sodipodi:linespacing="125%"
         id="title-text"
         y="991.43311"
         x="261.42859"
         style="font-size:40px;font-style:normal;font-variant:normal;font-weight:normal;font-stretch:normal;line-height:125%;letter-spacing:0px;word-spacing:0px;fill:#ddafe9;fill-opacity:1;stroke:none;font-family:CrashLanding BB;-inkscape-font-specification:CrashLanding BB"
         xml:space="preserve"><tspan
           y="991.43311"
           x="261.42859"
           id="tspan3793"
           sodipodi:role="line">1st level - dig to here</tspan></text>
    </g>
    <g
       id="g3849">
      <path
         inkscape:connector-curvature="0"
         id="text3071"
         d="m 528.84375,1604.2188 c -3.34389,0.2584 -7.68491,5.3351 -9.75,1.25 -5.81329,-2.3412 -12.30155,1.3099 -17.53125,3.7812 0.48104,6.3092 2.60525,9.9417 2.85779,15.9303 -1.22609,5.6029 3.10949,4.599 6.76721,3.4135 2.333,-0.7091 4.61527,-1.7648 6.3125,-3.4688 -3.9208,6.3838 6.53803,6.137 6.4375,0.7188 3.84503,-1.9205 5.35521,3.8178 7.88113,3.6225 1.73176,2.6406 11.30862,-8.3462 9.11887,1.1275 3.57275,-3.0549 11.317,-3.3014 12.0232,-8.2464 3.42141,-9.46 -8.9513,1.4886 -4.9891,-8.9954 1.72733,-7.5275 0.0207,-10.9812 -7.59567,-7.1316 -0.95039,2.2994 0.5816,18.1975 -1.6245,10.1275 -0.37742,-5.0953 3.56777,-15.5064 -4.91066,-10.7718 -4.9753,2.5768 0.15174,-4.6264 -4.99702,-1.3573 z m -117.78125,-0.25 c -6.0476,0.4817 -9.00945,3.6428 -14.81362,4.2129 -5.3258,1.6906 -2.19211,11.0431 -4.06787,15.8586 -4.22622,6.7141 6.62115,7.9816 6.57253,1.8214 0.11175,-1.8376 3.05267,9.7753 7.32971,2.2381 1.90383,-10.169 1.76127,-4.5103 4.67965,-0.4312 3.87036,0.3779 5.03818,4.4632 11.92684,-1.3153 2.80366,1.7907 4.26615,6.0868 11.34375,0 5.45276,-0.3065 1.64428,-11.5229 4.45575,-9.7609 1.50134,4.0025 -2.32465,16.4834 4.24834,12.4341 6.33177,-1.2873 2.3313,-9.887 3.86316,-14.5755 2.46585,-1.1953 7.13188,-10.756 1.33676,-10.076 -6.88019,3.0939 -7.08433,-0.7764 -12.29308,0.2899 -5.81573,2.4418 -6.34728,-0.3584 -10.26942,-0.1961 -3.70422,0.049 -9.65193,3.4865 -11.83696,1.507 -0.18485,-2.3209 0.13069,-3.0676 -2.47554,-2.007 z m 58.90625,0.4062 c -4.26278,2.3276 -14.95526,-0.2523 -13.32923,6.5908 -1.45828,8.2124 6.40708,2.2929 4.19144,11.6186 -1.8642,7.3324 3.24485,9.4342 7.21776,4.1355 0.30889,-4.8906 0.37238,-17.3022 1.20604,-5.8502 0.21233,5.8373 0.21575,11.9798 7.20426,7.5345 6.57544,-5.9535 4.75623,5.7274 10.53716,0.2414 5.26808,-1.4298 9.07486,-5.1684 7.62882,-10.4894 6.46511,-9.029 -9.60762,-2.2642 -2.61626,-4.9576 5.11254,-0.1049 4.53588,-5.6467 5.36626,-9.2924 -4.2578,0.6577 -8.44824,1.6485 -12.65625,2.5626 0.072,-5.1676 -9.55878,0.2939 -12.375,0.9062 -0.0563,-2.4868 1.07153,-4.4947 -2.375,-3 z m -137.28125,0 c -4.45012,0.4676 -10.1682,2.9163 -13.75,2.5 0.80036,-5.1694 -12.60123,-0.9492 -8.27636,5.1204 0.30137,6.1994 0.59079,12.3994 0.90136,18.5984 5.98508,-4.6031 8.90546,-3.4344 10.90083,-0.6076 4.74474,-1.5169 11.56449,-6.1993 10.50554,-8.7863 1.13674,6.016 2.89382,10.603 9.21863,6.1439 2.54581,-12.3545 -0.001,3.9745 4.08833,2.6424 5.70191,-3.8337 10.18728,-5.541 10.39165,0.1443 3.86434,-3.184 12.38266,-3.2205 11.30127,-9.693 0.0807,-5.1538 -8.95778,1.3452 -5.04828,-9.0827 1.98865,-7.6296 -2.08702,-7.2666 -6.92047,-6.886 -3.79249,0.5282 -9.44051,3.052 -9.28541,-0.1751 -5.82727,-1.9379 -9.9053,8.1505 -9.42496,2.1974 -1.73953,-0.9075 -1.79253,-2.9116 -4.60213,-2.1161 z m -46.15625,0.1562 c -5.4361,-0.094 -8.05923,3.3634 -13.03125,3.2813 -2.71458,-5.6311 -10.50374,-2.1949 -14.72866,-0.4117 -3.37617,0.7409 -1.96823,15.232 1.97866,8.9117 1.14044,-1.0268 5.30111,-3.8253 2.625,-0.6875 -2.77889,3.979 -7.75254,6.7748 -5.46875,12.3438 0.30607,4.4716 10.74203,-0.2378 13.19922,-1.7856 4.95067,-7.3573 -4.20695,-3.8694 -0.73047,-7.527 1.51166,-1.8218 2.84958,-6.5839 2.69411,-1.2357 1.6437,4.1714 -1.62123,15.8235 5.59597,11.5654 3.62178,0.025 10.08857,-5.5599 8.78858,-3.2775 -1.18803,6.202 3.27312,3.7668 6.51509,1.8854 6.83005,-3.8312 12.72734,-13.1482 8.53125,-20.7188 -3.57504,-4.1052 -10.15232,-1.2686 -13.625,-0.1875 0.41304,-2.8467 0.58688,-2.8347 -2.34375,-2.1563 z M 319.5,1618.9375 c -2.92325,-2.1588 0.20824,-13.8742 0,0 z m 63.0625,-5.4375 c -6.59226,1.1315 -10.89032,3.8592 -8.92477,11.0937 1.08283,1.7424 9.83236,-3.2166 11.39352,-5.8749 -0.72102,-2.3392 2.74132,-8.8032 -2.46875,-5.2188 z m -27.625,-0.25 c -5.62496,2.1975 -3.36836,-0.1869 0,0 z m -24.5,0.1875 c -5.24165,1.7824 -2.92745,0.1244 0,0 z m 93.03125,0.031 c -5.73832,2.1612 -2.24358,-0.2189 0,0 z M 434.75,1613.5 c -5.76575,2.0999 -2.18671,-0.2511 0,0 z m -139.53125,-0.125 c 0.52981,3.749 -2.2268,4.2197 0,0 z"
         style="font-size:40px;font-style:normal;font-variant:normal;font-weight:normal;font-stretch:normal;line-height:125%;letter-spacing:0px;word-spacing:0px;fill:#2b0011;fill-opacity:1;stroke:none;font-family:CrashLanding BB;-inkscape-font-specification:CrashLanding BB" />
      <text
         inkscape:label="#text3807"
         xml:space="preserve"
         style="font-size:40px;font-style:normal;font-variant:normal;font-weight:normal;font-stretch:normal;line-height:125%;letter-spacing:0px;word-spacing:0px;fill:#ddafe9;fill-opacity:1;stroke:none;font-family:CrashLanding BB;-inkscape-font-specification:CrashLanding BB"
         x="258.57144"
         y="1627.1473"
         id="text3910"
         sodipodi:linespacing="125%"><tspan
           sodipodi:role="line"
           id="tspan3809"
           x="258.57144"
           y="1627.1473">2nd level - MEET the ball</tspan></text>
    </g>
    <path
       style="fill:#cc48b2;fill-opacity:0.87843138;stroke:none"
       d="m 0,1652.875 0,588.5626 800,0 0,-588.5626 -800,0 z m 111.40625,428.5626 c 26.03628,0 47.15625,21.0886 47.15625,47.125 0,26.0362 -21.11997,47.1562 -47.15625,47.1562 -26.036282,0 -47.125,-21.12 -47.125,-47.1562 0,-26.0364 21.088718,-47.125 47.125,-47.125 z m 575.71875,0 c 26.03628,0 47.15625,21.0887 47.15625,47.125 0,26.0362 -21.11997,47.1562 -47.15625,47.1562 -26.03628,0 -47.125,-21.12 -47.125,-47.1562 0,-26.0363 21.08872,-47.125 47.125,-47.125 z"
       id="level-3-terrain"
       inkscape:connector-curvature="0"
       inkscape:label="#path3811" />
    <g
       id="level-3-title">
      <path
         inkscape:connector-curvature="0"
         id="text3870"
         d="m 446.90625,2180.8438 c -6.06233,1.5046 -10.14064,3.6387 -12.61546,0.5893 -4.13181,2.2423 -14.16702,-0.029 -13.83073,5.6592 -2.02635,9.0764 5.9402,3.0253 4.19496,11.6496 -0.57959,6.7262 0.50303,10.7964 7.18873,6.1331 0.54344,-2.9817 -0.0393,-18.207 1.36769,-11.6719 2.26426,3.858 0.59565,14.5584 5.41356,13.9531 6.95841,1.8807 5.80698,-12.4632 7.71875,-2.5624 4.61631,-0.5555 8.79241,-2.6289 8.125,-4.6563 4.73569,7.3371 16.50049,2.8863 17.8125,-4.9375 2.38608,-7.0062 -5.66467,-13.7048 -12.15625,-10.375 -1.57148,0.2391 -4.34164,3.8558 -2.81527,0.1488 3.44923,-7.2022 -8.45917,-1.039 -10.14614,-3.9999 l -0.25734,0.07 z m 58.84375,0.5312 c -3.31671,0.2252 -7.74805,5.3819 -9.75,1.3125 -5.79827,-2.5153 -12.31839,1.2831 -17.59375,3.6563 0.46971,6.3309 2.60521,9.9902 2.83745,15.9948 -1.0724,5.1409 2.44885,4.7806 6.03755,3.6302 2.57873,-0.7157 5.19286,-1.8497 7.125,-3.7813 -3.94395,6.4783 6.46115,6.2509 6.4375,0.7813 3.61732,-1.4717 5.71819,3.16 7.88113,3.6537 1.73176,2.6407 11.30862,-8.3462 9.11887,1.1275 5.41697,-1.6369 10.93145,-9.3353 12.15625,-1.125 1.32165,3.986 5.01468,-1.4339 6.96875,-2.9375 2.66018,-2.5969 3.57903,-7.3137 0.875,-10.1875 0.32188,-3.0911 5.57376,-14.3141 -0.71875,-12.5938 -6.50726,0.2493 -14.17219,5.7161 -11.53125,12.9688 2.37975,4.1663 -3.15299,1.7873 -0.74969,-2.3687 0.89081,-6.5398 1.57556,-12.8789 -6.59406,-8.3813 -3.75964,0.768 0.99864,16.9675 -2.61863,11.3775 -0.90265,-4.4809 4.05052,-16.1231 -3.9146,-12.0142 -5.9346,3.315 -0.94559,-4.1501 -5.96677,-1.1133 z m -144.28125,0.1562 c -4.44784,0.5481 -10.07489,2.7339 -13.75,2.5 0.80036,-5.1694 -12.60123,-0.9492 -8.27636,5.1204 0.30137,6.1994 0.59079,12.3994 0.90136,18.5984 5.98739,-4.5985 8.90036,-3.4443 10.9053,-0.5988 4.74813,-1.5149 11.55885,-6.2436 10.50107,-8.8263 1.10373,5.9409 2.92897,10.6548 9.21863,6.1751 2.54825,-12.3497 -0.006,3.9644 4.0928,2.6512 5.71242,-3.8411 10.17657,-5.5934 10.38718,0.1355 3.87602,-3.1865 12.4064,-3.228 11.30127,-9.7242 0.0838,-5.1296 -8.91657,1.3849 -5.037,-9.0525 1.95564,-7.6476 -2.11987,-7.2821 -6.93175,-6.885 -2.68483,-0.3298 -10.15227,4.2237 -8.3125,-0.4375 -5.13135,-1.2612 -11.09479,6.3454 -10.1875,3.4063 -0.37294,-3.5036 -2.54789,-2.1817 -4.8125,-3.0626 z M 311.5,2181.8438 c -3.88562,0.011 -8.05668,2.6602 -11.15625,3.1874 -2.15357,-5.4906 -9.57629,-2.3496 -13.53125,-1 -5.1786,-0.6933 -2.48774,14.0721 1.21875,8.9688 1.12029,-1.0542 5.10057,-3.1049 2,-0.5 -4.89835,0.3165 -1.5757,5.8071 -3.78125,7.6875 -0.83128,5.4367 0.9076,7.952 5.84375,5.375 3.94219,-1.4206 8.26898,-4.8507 7.90625,-9.4687 2.47535,2.2784 -1.42346,13.8643 5.75082,10.2149 1.39517,-2.7153 8.96627,-9.2498 10.62848,-2.013 -0.90725,5.561 4.67422,1.1553 7.1832,-0.077 6.44292,-3.8709 12.04917,-13.4532 7.46875,-20.4376 -3.95413,-4.0687 -10.28269,-0.5314 -14.1875,0.125 -1.14812,-1.7199 -3.3852,-2.2535 -5.34375,-2.0624 z m 36.75,14.25 c -2.77493,-2.2229 0.18802,-13.6848 0,0 z m 63.09375,-5.4376 c -6.62173,1.1076 -10.88347,3.8107 -8.92477,11.0625 1.08283,1.7424 9.83236,-3.2166 11.39352,-5.8749 -0.78033,-2.4722 2.90244,-8.653 -2.46875,-5.1876 z m -27.625,-0.2812 c -5.85119,1.9933 -3.36729,0.1375 0,0 z m -24.5,0.1875 c -5.11604,1.7617 -3.07507,0.2582 0,0 z M 324.125,2190.5 c 0.0681,4.8105 -2.27803,3.3404 0,0 z m 139.0625,2 c 3.57062,0.4277 -1.32154,6.3103 -1.9375,2.5625 -0.0555,-1.145 0.8186,-2.3278 1.9375,-2.5625 z m -163.78125,1.1562 c 0.69136,3.4312 -1.7598,-2.8882 -0.0279,-0.1433 l 0.0279,0.1433 z m 231.6875,5.2188 c 2.42186,0.805 -3.37004,4.3303 -1.2271,0.6287 -0.2616,-1.5902 0.31369,-1.1819 1.2271,-0.6287 z"
         style="font-size:40px;font-style:normal;font-variant:normal;font-weight:normal;font-stretch:normal;line-height:125%;letter-spacing:0px;word-spacing:0px;fill:#2b0011;fill-opacity:1;stroke:none;font-family:CrashLanding BB;-inkscape-font-specification:CrashLanding BB" />
      <text
         inkscape:label="#text3828"
         sodipodi:linespacing="125%"
         id="text3912"
         y="2204.2903"
         x="285.71429"
         style="font-size:40px;font-style:normal;font-variant:normal;font-weight:normal;font-stretch:normal;line-height:125%;letter-spacing:0px;word-spacing:0px;fill:#ddafe9;fill-opacity:1;stroke:none;font-family:CrashLanding BB;-inkscape-font-specification:CrashLanding BB"
         xml:space="preserve"><tspan
           y="2204.2903"
           x="285.71429"
           id="tspan3830"
           sodipodi:role="line">3rd level - TWO Balls</tspan></text>
    </g>
    <path
       style="fill:#cc48b2;fill-opacity:0.87843138;stroke:none"
       d="m 0,2236.75 0,274.5313 c 138.07522,-37.8369 472.55196,-105.6642 800,9.125 l 0,-283.6563 -800,0 z m 455.75,358.1876 c -2.16239,0.01 -4.4113,0.021 -6.59375,0.031 4.64841,7.6414 7.28125,16.6207 7.28125,26.2188 0,27.8945 -22.60541,50.5 -50.5,50.5 -27.89459,0 -50.5,-22.6055 -50.5,-50.5 0,-8.8716 2.2955,-17.192 6.3125,-24.4376 -101.99594,3.5992 -222.03623,12.888 -361.75,30.9376 l 0,197.625 800,0 0,-200.4688 c -54.85501,-12.4028 -165.26671,-30.3373 -344.25,-29.9062 z"
       id="level-4-terrain"
       inkscape:connector-curvature="0"
       inkscape:label="#path3832" />
    <g
       id="level-4-title">
      <g
         id="g3921">
        <path
           style="font-size:40px;font-style:normal;font-variant:normal;font-weight:normal;font-stretch:normal;line-height:125%;letter-spacing:0px;word-spacing:0px;fill:#2b0011;fill-opacity:1;stroke:none;font-family:CrashLanding BB;-inkscape-font-specification:CrashLanding BB"
           d="m 501.4375,2692 c -4.0038,0.5105 -8.37821,1.688 -11,4.9375 -4.42553,-6.3385 -14.36393,-4.0634 -18.4375,0.3125 -1.21181,-6.5701 -9.8409,-4.1193 -13.89856,-2.1945 -2.83591,1.8784 -0.62167,-3.4072 -4.85144,-2.0243 -10.52346,0.242 -17.65203,15.3977 -10.40625,23.2188 3.98874,3.097 9.56394,0.6688 12.65625,-2.625 -2.31649,6.9216 9.4318,4.9344 7.03125,-0.875 3.64344,-0.2031 7.34352,-1.2179 9.25,2.4375 6.46559,5.8358 17.58373,1.1409 20,-6.8125 1.78742,1.1438 5.86862,2.32 1.71875,4.0312 -4.33033,2.4411 2.20104,10.3935 5.15625,4.3126 2.78088,-1.6698 4.38682,-5.9385 4.78125,-8 2.28916,0.8607 4.75986,2.1921 1.21875,3.7187 -4.3241,2.3 2.12067,10.413 5.1875,4.2813 3.63102,-2.5621 6.29025,-8.3767 2.75,-12.125 0.40386,-3.0122 5.57635,-14.2742 -0.6875,-12.5313 -2.96323,0.446 -5.95077,1.3534 -8.4375,3.0625 0.34275,-2.5491 1.48662,-4.0864 -2.03125,-3.125 z m -164.53125,0.6562 c -4.59515,0.2963 -13.03791,4.9373 -12.9632,-0.1687 -6.72637,0.1146 -7.70617,4.8353 -11.37133,5.8966 -1.27334,5.9866 -2.56918,11.9686 -3.82172,17.9597 7.78461,-5.2169 7.05701,2.1405 11.84634,0.784 3.9992,-2.1768 5.84654,-5.8268 6.27866,-10.1903 -4.60796,-3.9007 2.42214,-3.782 0.84252,2.9294 -0.57959,6.7262 0.50303,10.7964 7.18873,6.1331 0.35284,-3.8402 0.38066,-18.6381 1.15892,-7.9661 0.90406,4.786 -0.84179,13.6532 6.34108,8.9349 5.10546,-1.1298 9.30918,-3.0034 7.99822,-9.6895 -0.90769,-4.2471 4.3769,-15.1266 -1.12322,-14.4668 -6.65177,1.0839 -9.38779,3.6841 -11.86149,-0.2668 l -0.51351,0.1105 z m 43.875,0 c -4.43057,0.5066 -10.21303,2.8455 -13.75,2.5 0.78683,-5.1609 -12.62471,-0.9537 -8.26996,5.1201 0.30886,6.1996 0.61615,12.3992 0.92621,18.5987 5.98252,-4.6072 8.87233,-3.4349 10.86958,-0.6075 4.74474,-1.5169 11.56449,-6.1994 10.50554,-8.7864 1.13674,6.0161 2.89382,10.6031 9.21863,6.1439 2.54581,-12.3545 -10e-4,3.9745 4.08833,2.6425 5.71721,-3.8369 10.20813,-5.5672 10.4229,0.1442 3.85899,-3.1779 12.35289,-3.2325 11.27002,-9.6929 0.0839,-5.1297 -8.9166,1.3849 -5.038,-9.0526 1.97084,-7.6425 -2.07788,-7.3078 -6.93075,-6.9162 -3.82432,0.5537 -9.42491,3.0419 -9.28541,-0.1751 -5.82727,-1.9378 -9.9053,8.1505 -9.42496,2.1975 -1.73953,-0.9075 -1.79253,-2.9116 -4.60213,-2.1162 z m -13.1875,14.5938 c -2.85485,-2.2152 0.17304,-13.7903 0,0 z m 63.0625,-5.4688 c -6.59226,1.1316 -10.89032,3.8592 -8.92477,11.0937 1.08283,1.7425 9.83236,-3.2166 11.39352,-5.8749 -0.72102,-2.3391 2.74132,-8.8031 -2.46875,-5.2188 z m -27.625,-0.25 c -6.04104,2.0333 -3.07572,-0.016 0,0 z m -24.5,0.1876 c -5.24165,1.7823 -2.92745,0.1244 0,0 z m 102.78125,0.062 c 5.37629,0.3649 2.92214,9.2897 -1.8125,8.9376 -5.43243,-0.4826 -2.69417,-9.1729 1.8125,-8.9376 z m -27.09375,5.3438 c 2.25077,0.7696 -0.56995,0.9139 0,0 z m -3.65625,2 c -1.03354,1.5294 -4.88005,1.0671 -0.5625,0.031 l 0.71875,-0.1874 -0.15625,0.1562 z"
           id="text3887"
           inkscape:connector-curvature="0" />
        <text
           sodipodi:linespacing="125%"
           id="text3914"
           y="2715.4272"
           x="310.96811"
           style="font-size:40px;font-style:normal;font-variant:normal;font-weight:normal;font-stretch:normal;line-height:125%;letter-spacing:0px;word-spacing:0px;fill:#ddafe9;fill-opacity:1;stroke:none;font-family:CrashLanding BB;-inkscape-font-specification:CrashLanding BB"
           xml:space="preserve"
           inkscape:label="#text3847"><tspan
             y="2715.4272"
             x="310.96811"
             id="tspan3849"
             sodipodi:role="line">4th level - cross</tspan></text>
      </g>
    </g>
    <path
       style="fill:#cc48b2;fill-opacity:0.87843138;stroke:none"
       d="m 0,2824.6563 0,162.0313 0,15.0937 800,139.875 0,-33.3437 0,-121.625 0,-162.0313 -800,0 z m 0,237.0625 0,37.4688 0,116.4062 0,90.4688 0,107.1562 795.8125,0 -73.25,-32.3438 c -7.77021,8.656 -19.05068,14.0938 -31.59375,14.0938 -23.43146,0 -42.4375,-19.006 -42.4375,-42.4375 0,-1.4434 0.0779,-2.8751 0.21875,-4.2813 l -67.3125,-29.7187 c -7.51152,11.9366 -20.7975,19.875 -35.9375,19.875 -23.43146,0 -42.4375,-19.006 -42.4375,-42.4375 0,-3.943 0.55556,-7.7521 1.5625,-11.375 l -67.90625,-29.9688 c -7.35037,12.6404 -21.0169,21.1563 -36.6875,21.1563 -23.43146,0 -42.40625,-19.006 -42.40625,-42.4375 0,-4.4631 0.69222,-8.7712 1.96875,-12.8125 l -68.5,-30.25 c -7.38363,12.4692 -20.95774,20.8437 -36.5,20.8437 -23.43146,0 -42.4375,-19.0062 -42.4375,-42.4374 0,-4.325 0.64046,-8.5076 1.84375,-12.4376 l -68.5625,-30.2812 c -7.42754,12.2828 -20.91059,20.5 -36.3125,20.5 -23.431456,0 -42.4375,-19.006 -42.4375,-42.4375 0,-4.2011 0.612128,-8.263 1.75,-12.0937 L 0,3061.7188 z m 278.5625,175.4375 c 43.3938,0 78.59375,35.1687 78.59375,78.5625 0,43.3938 -35.19995,78.5625 -78.59375,78.5625 -43.3938,0 -78.5625,-35.1687 -78.5625,-78.5625 0,-43.3938 35.1687,-78.5625 78.5625,-78.5625 z"
       id="level-5-terrain"
       inkscape:connector-curvature="0"
       inkscape:label="#path3856" />
    <path
       sodipodi:type="arc"
       style="fill:#ff6600;fill-opacity:1;stroke:none"
       id="level-5-check-point-0"
       sodipodi:cx="158.57143"
       sodipodi:cy="3044.2856"
       sodipodi:rx="97.14286"
       sodipodi:ry="97.14286"
       d="m 255.71429,3044.2856 c 0,53.6506 -43.49234,97.1429 -97.14286,97.1429 -53.65052,0 -97.142864,-43.4923 -97.142864,-97.1429 0,-53.6505 43.492344,-97.1428 97.142864,-97.1428 53.65052,0 97.14286,43.4923 97.14286,97.1428 z"
       transform="matrix(0.6764706,0,0,0.6764706,171.30251,1256.349)"
       inkscape:label="#path3876" />
    <path
       style="fill:#cc48b2;fill-opacity:0.87843347;stroke:none"
       d="m 0,3411.4376 0,357.9062 c 85.655139,-22.8544 231.84215,-37.9062 397.84375,-37.9062 168.78395,0 317.14178,15.5613 402.15625,39.0624 l 0,-359.0624 -800,0 z m 800,450.9374 c -76.1979,21.064 -203.27683,35.7424 -350.34375,38.5626 -7.38141,20.2843 -26.8149,34.7812 -49.65625,34.7812 -22.8064,0 -42.24094,-14.4519 -49.65625,-34.6875 C 204.17321,3898.4645 77.380552,3884.1779 0,3863.5313 L 0,4000 l 800,0 0,-137.625 z"
       id="level-6-terrain"
       inkscape:connector-curvature="0"
       inkscape:label="#path3881" />
    <path
       transform="matrix(0.41176473,0,0,0.41176473,334.70587,2629.3322)"
       d="m 255.71429,3044.2856 c 0,53.6506 -43.49234,97.1429 -97.14286,97.1429 -53.65052,0 -97.142864,-43.4923 -97.142864,-97.1429 0,-53.6505 43.492344,-97.1428 97.142864,-97.1428 53.65052,0 97.14286,43.4923 97.14286,97.1428 z"
       sodipodi:ry="97.14286"
       sodipodi:rx="97.14286"
       sodipodi:cy="3044.2856"
       sodipodi:cx="158.57143"
       id="level-6-check-point-0"
       style="fill:#aa8800;fill-opacity:1;stroke:none"
       sodipodi:type="arc"
       inkscape:label="#path3887" />
    <g
       id="level-5-title">
      <path
         inkscape:connector-curvature="0"
         id="text3898"
         d="m 552.96875,3360.5625 c -4.06786,-0.023 -8.83478,2.9068 -11.25,4.625 -4.58732,-6.1231 -14.26695,-3.482 -18.1875,0.625 -1.08278,-6.1697 -8.95982,-4.3726 -12.96875,-2.5625 -4.10599,2.9142 -1.00625,-2.9012 -5.6875,-1.6562 -10.58514,0.1526 -17.85572,15.5656 -10.375,23.2812 3.93957,3.059 9.58904,0.5375 12.5625,-2.7188 -2.35833,6.9846 9.29316,4.9958 7,-0.8124 3.3874,0.039 7.34989,-1.5825 9,2.1562 6.48422,6.2685 17.81364,1.451 20.28125,-6.5312 1.86059,1.1476 5.84747,2.2062 1.71875,4 -4.33838,1.474 1.63603,10.5505 4.53125,4.8437 3.01686,-1.7295 5.02006,-6.1406 5.34375,-8.5625 1.45531,0.8544 5.02287,1.8516 1.78125,3.375 -5.15203,1.2351 0.95846,11.0276 3.96875,5.2188 3.95617,-2.5354 7.22521,-8.5975 3.46875,-12.6563 0.38716,-3.0205 5.58512,-14.2995 -0.6875,-12.5625 -2.9418,0.4887 -5.9797,1.3184 -8.46875,3.0938 0.31672,-2.5469 1.5176,-4.1324 -2.03125,-3.1563 z m -120.75,0.6875 c -4.41166,0.591 -10.03815,2.7706 -13.625,2.4688 0.78702,-5.1529 -12.65901,-0.9702 -8.30153,5.12 0.309,6.21 0.61593,12.4201 0.92653,18.63 5.97868,-4.5499 8.8747,-3.4969 10.8428,-0.6301 4.75688,-1.5187 11.62624,-6.1873 10.56357,-8.7951 1.12927,5.9423 2.88963,10.6707 9.18738,6.1752 2.57809,-12.398 0.0257,3.866 4.11958,2.6112 5.7102,-3.8526 10.17825,-5.527 10.39378,0.1796 3.85618,-3.1546 12.39543,-3.2601 11.26789,-9.7284 0.0133,-5.1106 -8.88452,1.3607 -5.01808,-9.0514 2.02,-7.6914 -2.29254,-7.4625 -7.01317,-6.8548 -3.71246,0.4923 -9.42883,3.0237 -9.19166,-0.2376 -5.82556,-1.9382 -9.90864,8.1512 -9.42245,2.1969 -2.66179,-0.7175 -0.39482,-3.7468 -4.72964,-2.0843 z m -57.09375,0.094 c -5.7625,1.5864 -14.17385,1.317 -10.52642,9.5056 1.46696,6.1527 -0.3008,9.9612 0.21392,15.8694 5.92206,-0.8561 14.8407,-4.7448 13.21875,-12.125 -1.92499,-3.8486 2.99436,-0.8148 1.16497,2.837 -0.18633,6.4297 -0.25496,12.5706 7.01519,7.2333 0.94754,-2.7558 0.42344,-18.1512 1.30847,-9.0619 1.16092,4.8023 -1.13804,14.9494 6.43509,9.9334 4.50833,-1.364 9.36589,-2.2637 7.91334,-8.6987 -0.70487,-4.5684 3.87285,-14.8543 -0.39893,-15.575 -4.51377,-1.3275 -11.62082,6.7734 -10.59438,-0.5431 -3.82578,-0.7224 -14.06455,6.3079 -13.15625,-0.031 -0.86458,0.2187 -1.72917,0.4375 -2.59375,0.6563 z m 44,14.4687 c -2.84194,-2.2099 0.22446,-13.792 0,0 z M 375.28125,3371 c 1.10568,2.612 -5.61052,0.043 -1.74705,-1.0274 1.68456,-0.6985 1.87504,-0.9949 1.74705,1.0274 z m 106.9375,-0.625 c -6.62173,1.1076 -10.88347,3.8107 -8.92477,11.0624 1.08688,1.7455 9.76205,-3.194 11.36227,-5.8749 -0.73537,-2.4662 2.93188,-8.6548 -2.4375,-5.1875 z m -27.65625,-0.2812 c -5.92221,1.9939 -3.2593,0.1391 0,0 z m -24.46875,0.1874 c -5.24913,1.8366 -2.90963,0.1462 0,0 z m 102.84375,0.063 c 6.3901,0.6888 1.25532,11.7529 -3.6875,8.3437 -2.91234,-2.7492 -0.15277,-8.2825 3.6875,-8.3437 z m -27.1875,5.4687 c 2.16855,0.5683 -0.36284,0.861 0,0 z m -3.625,1.875 c -1.04951,1.4745 -4.83986,1.1789 -0.53125,0.062 l 0.625,-0.1875 -0.0937,0.125 z"
         style="font-size:40px;font-style:normal;font-variant:normal;font-weight:normal;font-stretch:normal;line-height:125%;letter-spacing:0px;word-spacing:0px;fill:#2b0011;fill-opacity:1;stroke:none;font-family:CrashLanding BB;-inkscape-font-specification:CrashLanding BB" />
      <text
         inkscape:label="#text3889"
         sodipodi:linespacing="125%"
         id="text3931"
         y="3383.9988"
         x="365.25381"
         style="font-size:40px;font-style:normal;font-variant:normal;font-weight:normal;font-stretch:normal;line-height:125%;letter-spacing:0px;word-spacing:0px;fill:#ddafe9;fill-opacity:1;stroke:none;font-family:CrashLanding BB;-inkscape-font-specification:CrashLanding BB"
         xml:space="preserve"><tspan
           y="3383.9988"
           x="365.25381"
           id="tspan3891"
           sodipodi:role="line">5th level - cross</tspan></text>
    </g>
    <g
       id="level-6-title">
      <path
         inkscape:connector-curvature="0"
         id="text3904"
         d="m 484.4375,3949.6562 c -7.70605,5.0955 -6.50965,-0.1947 -12.25306,0.6472 -6.49839,2.3084 -8.49411,2.3019 -11.96569,0.1966 -2.0915,-1.7802 -8.00341,-0.1632 -13.44625,1.3199 -8.88249,-0.6416 -3.90738,8.5275 -4.16443,13.9926 0.7253,5.3173 -0.45846,14.467 6.42318,7.8125 -0.18514,-4.2501 6.20219,-13.1012 5.75872,-3.4772 -2.77671,10.3974 8.59988,-1.5296 7.28597,5.1512 2.76508,1.515 11.4635,-6.4437 10.42892,-0.5057 4.3773,3.911 7.29922,-5.8319 10.20895,-4.0822 1.82482,4.3695 4.69822,3.7486 7.69244,3.8827 4.7412,-2.5585 11.31371,-3.8699 9.56897,-10.7434 -4.93485,1.4301 -6.81403,-1.4937 -5.0996,-9.0566 3.80183,-10.0205 -8.46108,0.7872 -8.06312,-6.0438 -0.79167,0.3021 -1.58333,0.6042 -2.375,0.9062 z m -145.8125,0.1563 c -5.61357,1.326 -9.71836,2.5387 -13.4375,0.5937 -10.44711,-0.381 -16.4185,13.3288 -11.65625,21.7188 4.53876,6.4279 16.72304,1.28 14,-6.6875 -1.54256,-2.2801 -2.14154,-3.8555 1.59375,-4.4063 1.49199,4.0066 -2.01275,15.9004 3.375,13.7813 7.09474,-0.716 3.4288,-9.0782 4.71771,-13.9247 1.14164,1.7208 -0.002,12.7438 2.67473,14.5341 3.80931,-1.9826 9.66365,-1.7004 11.63881,-5.0157 0.68565,-6.9585 1.3885,-13.9153 2.0625,-20.875 -4.88133,-1.4457 -12.9369,6.588 -12.51313,0.3132 0.48746,-1.3669 -1.92151,0.1959 -2.45562,-0.032 z m 43.875,0 c -4.4422,0.5404 -10.06464,2.7479 -13.75,2.5 0.78683,-5.1609 -12.62471,-0.9538 -8.26996,5.1201 0.30886,6.1995 0.61615,12.3992 0.92621,18.5986 5.98482,-4.6027 8.86724,-3.4447 10.87405,-0.5988 4.74813,-1.5148 11.55885,-6.2436 10.50107,-8.8263 1.10373,5.941 2.92897,10.6549 9.21863,6.1751 2.54825,-12.3497 -0.006,3.9644 4.0928,2.6512 5.74328,-3.8482 10.20563,-5.6227 10.41843,0.1356 3.8707,-3.1804 12.37657,-3.2402 11.27002,-9.7242 0.0838,-5.1297 -8.91657,1.3849 -5.037,-9.0525 1.95564,-7.6477 -2.11987,-7.2821 -6.93175,-6.8851 -2.68483,-0.3297 -10.15227,4.2238 -8.3125,-0.4374 -5.13135,-1.2613 -11.09479,6.3454 -10.1875,3.4062 -0.37294,-3.5036 -2.54789,-2.1817 -4.8125,-3.0625 z m -13.21875,14.5625 c -2.77493,-2.2228 0.18802,-13.6848 0,0 z m 63.09375,-5.4375 c -6.62173,1.1076 -10.88347,3.8107 -8.92477,11.0624 1.08283,1.7425 9.83236,-3.2166 11.39352,-5.8749 -0.78033,-2.4721 2.90244,-8.653 -2.46875,-5.1875 z m 21.75,-0.3437 c -5.73145,2.0419 -3.37746,0.3436 0,0 z m -49.375,0.062 c -5.92221,1.994 -3.2593,0.1392 0,0 z m -24.5,0.1876 c -5.11604,1.7616 -3.07507,0.2581 0,0 z"
         style="font-size:40px;font-style:normal;font-variant:normal;font-weight:normal;font-stretch:normal;line-height:125%;letter-spacing:0px;word-spacing:0px;fill:#2b0011;fill-opacity:1;stroke:none;font-family:CrashLanding BB;-inkscape-font-specification:CrashLanding BB" />
      <text
         inkscape:label="#text3893"
         xml:space="preserve"
         style="font-size:40px;font-style:normal;font-variant:normal;font-weight:normal;font-stretch:normal;line-height:125%;letter-spacing:0px;word-spacing:0px;fill:#ddafe9;fill-opacity:1;stroke:none;font-family:CrashLanding BB;-inkscape-font-specification:CrashLanding BB"
         x="310.96811"
         y="3972.5703"
         id="text3938"
         sodipodi:linespacing="125%"><tspan
           sodipodi:role="line"
           id="tspan3895"
           x="310.96811"
           y="3972.5703">6th level - FINAL</tspan></text>
    </g>
    <g
       id="level-2-title">
      <path
         style="font-size:40px;font-style:normal;font-variant:normal;font-weight:normal;font-stretch:normal;line-height:125%;letter-spacing:0px;word-spacing:0px;fill:#2b0011;fill-opacity:1;stroke:none;font-family:CrashLanding BB;-inkscape-font-specification:CrashLanding BB"
         d="m 528.84375,1604.2188 c -3.34389,0.2584 -7.68491,5.3351 -9.75,1.25 -5.81329,-2.3412 -12.30155,1.3099 -17.53125,3.7812 0.48104,6.3092 2.60525,9.9417 2.85779,15.9303 -1.22609,5.6029 3.10949,4.599 6.76721,3.4135 2.333,-0.7091 4.61527,-1.7648 6.3125,-3.4688 -3.9208,6.3838 6.53803,6.137 6.4375,0.7188 3.84503,-1.9205 5.35521,3.8178 7.88113,3.6225 1.73176,2.6406 11.30862,-8.3462 9.11887,1.1275 3.57275,-3.0549 11.317,-3.3014 12.0232,-8.2464 3.42141,-9.46 -8.9513,1.4886 -4.9891,-8.9954 1.72733,-7.5275 0.0207,-10.9812 -7.59567,-7.1316 -0.95039,2.2994 0.5816,18.1975 -1.6245,10.1275 -0.37742,-5.0953 3.56777,-15.5064 -4.91066,-10.7718 -4.9753,2.5768 0.15174,-4.6264 -4.99702,-1.3573 z m -117.78125,-0.25 c -6.0476,0.4817 -9.00945,3.6428 -14.81362,4.2129 -5.3258,1.6906 -2.19211,11.0431 -4.06787,15.8586 -4.22622,6.7141 6.62115,7.9816 6.57253,1.8214 0.11175,-1.8376 3.05267,9.7753 7.32971,2.2381 1.90383,-10.169 1.76127,-4.5103 4.67965,-0.4312 3.87036,0.3779 5.03818,4.4632 11.92684,-1.3153 2.80366,1.7907 4.26615,6.0868 11.34375,0 5.45276,-0.3065 1.64428,-11.5229 4.45575,-9.7609 1.50134,4.0025 -2.32465,16.4834 4.24834,12.4341 6.33177,-1.2873 2.3313,-9.887 3.86316,-14.5755 2.46585,-1.1953 7.13188,-10.756 1.33676,-10.076 -6.88019,3.0939 -7.08433,-0.7764 -12.29308,0.2899 -5.81573,2.4418 -6.34728,-0.3584 -10.26942,-0.1961 -3.70422,0.049 -9.65193,3.4865 -11.83696,1.507 -0.18485,-2.3209 0.13069,-3.0676 -2.47554,-2.007 z m 58.90625,0.4062 c -4.26278,2.3276 -14.95526,-0.2523 -13.32923,6.5908 -1.45828,8.2124 6.40708,2.2929 4.19144,11.6186 -1.8642,7.3324 3.24485,9.4342 7.21776,4.1355 0.30889,-4.8906 0.37238,-17.3022 1.20604,-5.8502 0.21233,5.8373 0.21575,11.9798 7.20426,7.5345 6.57544,-5.9535 4.75623,5.7274 10.53716,0.2414 5.26808,-1.4298 9.07486,-5.1684 7.62882,-10.4894 6.46511,-9.029 -9.60762,-2.2642 -2.61626,-4.9576 5.11254,-0.1049 4.53588,-5.6467 5.36626,-9.2924 -4.2578,0.6577 -8.44824,1.6485 -12.65625,2.5626 0.072,-5.1676 -9.55878,0.2939 -12.375,0.9062 -0.0563,-2.4868 1.07153,-4.4947 -2.375,-3 z m -137.28125,0 c -4.45012,0.4676 -10.1682,2.9163 -13.75,2.5 0.80036,-5.1694 -12.60123,-0.9492 -8.27636,5.1204 0.30137,6.1994 0.59079,12.3994 0.90136,18.5984 5.98508,-4.6031 8.90546,-3.4344 10.90083,-0.6076 4.74474,-1.5169 11.56449,-6.1993 10.50554,-8.7863 1.13674,6.016 2.89382,10.603 9.21863,6.1439 2.54581,-12.3545 -10e-4,3.9745 4.08833,2.6424 5.70191,-3.8337 10.18728,-5.541 10.39165,0.1443 3.86434,-3.184 12.38266,-3.2205 11.30127,-9.693 0.0807,-5.1538 -8.95778,1.3452 -5.04828,-9.0827 1.98865,-7.6296 -2.08702,-7.2666 -6.92047,-6.886 -3.79249,0.5282 -9.44051,3.052 -9.28541,-0.1751 -5.82727,-1.9379 -9.9053,8.1505 -9.42496,2.1974 -1.73953,-0.9075 -1.79253,-2.9116 -4.60213,-2.1161 z m -46.15625,0.1562 c -5.4361,-0.094 -8.05923,3.3634 -13.03125,3.2813 -2.71458,-5.6311 -10.50374,-2.1949 -14.72866,-0.4117 -3.37617,0.7409 -1.96823,15.232 1.97866,8.9117 1.14044,-1.0268 5.30111,-3.8253 2.625,-0.6875 -2.77889,3.979 -7.75254,6.7748 -5.46875,12.3438 0.30607,4.4716 10.74203,-0.2378 13.19922,-1.7856 4.95067,-7.3573 -4.20695,-3.8694 -0.73047,-7.527 1.51166,-1.8218 2.84958,-6.5839 2.69411,-1.2357 1.6437,4.1714 -1.62123,15.8235 5.59597,11.5654 3.62178,0.025 10.08857,-5.5599 8.78858,-3.2775 -1.18803,6.202 3.27312,3.7668 6.51509,1.8854 6.83005,-3.8312 12.72734,-13.1482 8.53125,-20.7188 -3.57504,-4.1052 -10.15232,-1.2686 -13.625,-0.1875 0.41304,-2.8467 0.58688,-2.8347 -2.34375,-2.1563 z M 319.5,1618.9375 c -2.92325,-2.1588 0.20824,-13.8742 0,0 z m 63.0625,-5.4375 c -6.59226,1.1315 -10.89032,3.8592 -8.92477,11.0937 1.08283,1.7424 9.83236,-3.2166 11.39352,-5.8749 -0.72102,-2.3392 2.74132,-8.8032 -2.46875,-5.2188 z m -27.625,-0.25 c -5.62496,2.1975 -3.36836,-0.1869 0,0 z m -24.5,0.1875 c -5.24165,1.7824 -2.92745,0.1244 0,0 z m 93.03125,0.031 c -5.73832,2.1612 -2.24358,-0.2189 0,0 z M 434.75,1613.5 c -5.76575,2.0999 -2.18671,-0.2511 0,0 z m -139.53125,-0.125 c 0.52981,3.749 -2.2268,4.2197 0,0 z"
         id="path3856"
         inkscape:connector-curvature="0" />
      <text
         sodipodi:linespacing="125%"
         id="text3858"
         y="1627.1473"
         x="258.57144"
         style="font-size:40px;font-style:normal;font-variant:normal;font-weight:normal;font-stretch:normal;line-height:125%;letter-spacing:0px;word-spacing:0px;fill:#ddafe9;fill-opacity:1;stroke:none;font-family:CrashLanding BB;-inkscape-font-specification:CrashLanding BB"
         xml:space="preserve"
         inkscape:label="#text3807"><tspan
           y="1627.1473"
           x="258.57144"
           id="tspan3860"
           sodipodi:role="line">2nd level - MEET the ball</tspan></text>
    </g>
    <g
       id="g3862"
       transform="translate(-766.03082,2364.9267)">
      <path
         inkscape:connector-curvature="0"
         id="path3864"
         d="m 528.84375,1604.2188 c -3.34389,0.2584 -7.68491,5.3351 -9.75,1.25 -5.81329,-2.3412 -12.30155,1.3099 -17.53125,3.7812 0.48104,6.3092 2.60525,9.9417 2.85779,15.9303 -1.22609,5.6029 3.10949,4.599 6.76721,3.4135 2.333,-0.7091 4.61527,-1.7648 6.3125,-3.4688 -3.9208,6.3838 6.53803,6.137 6.4375,0.7188 3.84503,-1.9205 5.35521,3.8178 7.88113,3.6225 1.73176,2.6406 11.30862,-8.3462 9.11887,1.1275 3.57275,-3.0549 11.317,-3.3014 12.0232,-8.2464 3.42141,-9.46 -8.9513,1.4886 -4.9891,-8.9954 1.72733,-7.5275 0.0207,-10.9812 -7.59567,-7.1316 -0.95039,2.2994 0.5816,18.1975 -1.6245,10.1275 -0.37742,-5.0953 3.56777,-15.5064 -4.91066,-10.7718 -4.9753,2.5768 0.15174,-4.6264 -4.99702,-1.3573 z m -117.78125,-0.25 c -6.0476,0.4817 -9.00945,3.6428 -14.81362,4.2129 -5.3258,1.6906 -2.19211,11.0431 -4.06787,15.8586 -4.22622,6.7141 6.62115,7.9816 6.57253,1.8214 0.11175,-1.8376 3.05267,9.7753 7.32971,2.2381 1.90383,-10.169 1.76127,-4.5103 4.67965,-0.4312 3.87036,0.3779 5.03818,4.4632 11.92684,-1.3153 2.80366,1.7907 4.26615,6.0868 11.34375,0 5.45276,-0.3065 1.64428,-11.5229 4.45575,-9.7609 1.50134,4.0025 -2.32465,16.4834 4.24834,12.4341 6.33177,-1.2873 2.3313,-9.887 3.86316,-14.5755 2.46585,-1.1953 7.13188,-10.756 1.33676,-10.076 -6.88019,3.0939 -7.08433,-0.7764 -12.29308,0.2899 -5.81573,2.4418 -6.34728,-0.3584 -10.26942,-0.1961 -3.70422,0.049 -9.65193,3.4865 -11.83696,1.507 -0.18485,-2.3209 0.13069,-3.0676 -2.47554,-2.007 z m 58.90625,0.4062 c -4.26278,2.3276 -14.95526,-0.2523 -13.32923,6.5908 -1.45828,8.2124 6.40708,2.2929 4.19144,11.6186 -1.8642,7.3324 3.24485,9.4342 7.21776,4.1355 0.30889,-4.8906 0.37238,-17.3022 1.20604,-5.8502 0.21233,5.8373 0.21575,11.9798 7.20426,7.5345 6.57544,-5.9535 4.75623,5.7274 10.53716,0.2414 5.26808,-1.4298 9.07486,-5.1684 7.62882,-10.4894 6.46511,-9.029 -9.60762,-2.2642 -2.61626,-4.9576 5.11254,-0.1049 4.53588,-5.6467 5.36626,-9.2924 -4.2578,0.6577 -8.44824,1.6485 -12.65625,2.5626 0.072,-5.1676 -9.55878,0.2939 -12.375,0.9062 -0.0563,-2.4868 1.07153,-4.4947 -2.375,-3 z m -137.28125,0 c -4.45012,0.4676 -10.1682,2.9163 -13.75,2.5 0.80036,-5.1694 -12.60123,-0.9492 -8.27636,5.1204 0.30137,6.1994 0.59079,12.3994 0.90136,18.5984 5.98508,-4.6031 8.90546,-3.4344 10.90083,-0.6076 4.74474,-1.5169 11.56449,-6.1993 10.50554,-8.7863 1.13674,6.016 2.89382,10.603 9.21863,6.1439 2.54581,-12.3545 -10e-4,3.9745 4.08833,2.6424 5.70191,-3.8337 10.18728,-5.541 10.39165,0.1443 3.86434,-3.184 12.38266,-3.2205 11.30127,-9.693 0.0807,-5.1538 -8.95778,1.3452 -5.04828,-9.0827 1.98865,-7.6296 -2.08702,-7.2666 -6.92047,-6.886 -3.79249,0.5282 -9.44051,3.052 -9.28541,-0.1751 -5.82727,-1.9379 -9.9053,8.1505 -9.42496,2.1974 -1.73953,-0.9075 -1.79253,-2.9116 -4.60213,-2.1161 z m -46.15625,0.1562 c -5.4361,-0.094 -8.05923,3.3634 -13.03125,3.2813 -2.71458,-5.6311 -10.50374,-2.1949 -14.72866,-0.4117 -3.37617,0.7409 -1.96823,15.232 1.97866,8.9117 1.14044,-1.0268 5.30111,-3.8253 2.625,-0.6875 -2.77889,3.979 -7.75254,6.7748 -5.46875,12.3438 0.30607,4.4716 10.74203,-0.2378 13.19922,-1.7856 4.95067,-7.3573 -4.20695,-3.8694 -0.73047,-7.527 1.51166,-1.8218 2.84958,-6.5839 2.69411,-1.2357 1.6437,4.1714 -1.62123,15.8235 5.59597,11.5654 3.62178,0.025 10.08857,-5.5599 8.78858,-3.2775 -1.18803,6.202 3.27312,3.7668 6.51509,1.8854 6.83005,-3.8312 12.72734,-13.1482 8.53125,-20.7188 -3.57504,-4.1052 -10.15232,-1.2686 -13.625,-0.1875 0.41304,-2.8467 0.58688,-2.8347 -2.34375,-2.1563 z M 319.5,1618.9375 c -2.92325,-2.1588 0.20824,-13.8742 0,0 z m 63.0625,-5.4375 c -6.59226,1.1315 -10.89032,3.8592 -8.92477,11.0937 1.08283,1.7424 9.83236,-3.2166 11.39352,-5.8749 -0.72102,-2.3392 2.74132,-8.8032 -2.46875,-5.2188 z m -27.625,-0.25 c -5.62496,2.1975 -3.36836,-0.1869 0,0 z m -24.5,0.1875 c -5.24165,1.7824 -2.92745,0.1244 0,0 z m 93.03125,0.031 c -5.73832,2.1612 -2.24358,-0.2189 0,0 z M 434.75,1613.5 c -5.76575,2.0999 -2.18671,-0.2511 0,0 z m -139.53125,-0.125 c 0.52981,3.749 -2.2268,4.2197 0,0 z"
         style="font-size:40px;font-style:normal;font-variant:normal;font-weight:normal;font-stretch:normal;line-height:125%;letter-spacing:0px;word-spacing:0px;fill:#2b0011;fill-opacity:1;stroke:none;font-family:CrashLanding BB;-inkscape-font-specification:CrashLanding BB" />
      <text
         inkscape:label="#text3807"
         xml:space="preserve"
         style="font-size:40px;font-style:normal;font-variant:normal;font-weight:normal;font-stretch:normal;line-height:125%;letter-spacing:0px;word-spacing:0px;fill:#ddafe9;fill-opacity:1;stroke:none;font-family:CrashLanding BB;-inkscape-font-specification:CrashLanding BB"
         x="258.57144"
         y="1627.1473"
         id="text3866"
         sodipodi:linespacing="125%"><tspan
           sodipodi:role="line"
           id="tspan3868"
           x="258.57144"
           y="1627.1473">2nd level - MEET the ball</tspan></text>
    </g>
  </g>
</svg>
