<?xml version="1.0" encoding="UTF-8" standalone="no"?>
<!-- Created with Inkscape (http://www.inkscape.org/) -->

<svg
   xmlns:dc="http://purl.org/dc/elements/1.1/"
   xmlns:cc="http://creativecommons.org/ns#"
   xmlns:rdf="http://www.w3.org/1999/02/22-rdf-syntax-ns#"
   xmlns:svg="http://www.w3.org/2000/svg"
   xmlns="http://www.w3.org/2000/svg"
   xmlns:xlink="http://www.w3.org/1999/xlink"
   xmlns:sodipodi="http://sodipodi.sourceforge.net/DTD/sodipodi-0.dtd"
   xmlns:inkscape="http://www.inkscape.org/namespaces/inkscape"
   width="1366"
   height="768"
   id="svg2"
   version="1.1"
   inkscape:version="0.48.3.1 r9886"
   sodipodi:docname="home-screen.svg">
  <defs
     id="defs4">
    <linearGradient
       id="linearGradient3831">
      <stop
         style="stop-color:#f6ffd5;stop-opacity:1;"
         offset="0"
         id="stop3833" />
      <stop
         style="stop-color:#f6ffd5;stop-opacity:0;"
         offset="1"
         id="stop3835" />
    </linearGradient>
    <radialGradient
       inkscape:collect="always"
       xlink:href="#linearGradient3831"
       id="radialGradient3837"
       cx="585.71875"
       cy="658.08093"
       fx="585.71875"
       fy="658.08093"
       r="0.5"
       gradientTransform="matrix(1,0,0,551.4375,0,-362232.42)"
       gradientUnits="userSpaceOnUse"
       spreadMethod="repeat" />
  </defs>
  <sodipodi:namedview
     id="base"
     pagecolor="#ffffff"
     bordercolor="#666666"
     borderopacity="1.0"
     inkscape:pageopacity="0.0"
     inkscape:pageshadow="2"
     inkscape:zoom="2.8"
     inkscape:cx="749.45902"
     inkscape:cy="16.801236"
     inkscape:document-units="px"
     inkscape:current-layer="layer4"
     showgrid="false"
     inkscape:window-width="1920"
     inkscape:window-height="1017"
     inkscape:window-x="-8"
     inkscape:window-y="-8"
     inkscape:window-maximized="1" />
  <metadata
     id="metadata7">
    <rdf:RDF>
      <cc:Work
         rdf:about="">
        <dc:format>image/svg+xml</dc:format>
        <dc:type
           rdf:resource="http://purl.org/dc/dcmitype/StillImage" />
        <dc:title></dc:title>
      </cc:Work>
    </rdf:RDF>
  </metadata>
  <g
     inkscape:groupmode="layer"
     id="layer2"
     inkscape:label="background"
     sodipodi:insensitive="true">
    <rect
       style="fill:#005500;fill-opacity:0.75294118;stroke:none"
       id="rect3012"
       width="1366"
       height="768"
       x="0"
       y="0" />
  </g>
  <g
     inkscape:label="menu-items"
     inkscape:groupmode="layer"
     id="layer1"
     transform="translate(0,-284.36218)">
    <g
       id="g3051"
       transform="matrix(1.681866,0,0,1.681866,-477.92131,-349.62027)">
      <g
         id="g3022">
        <path
           style="font-size:90.50440979px;font-style:normal;font-variant:normal;font-weight:normal;font-stretch:normal;line-height:125%;letter-spacing:0px;word-spacing:0px;fill:#22280b;fill-opacity:1;stroke:none;font-family:CrashLanding BB;-inkscape-font-specification:CrashLanding BB"
           d="m 579.25,562.5 c -7.30675,1.06831 -14.96509,2.65633 -20.9375,7.3125 0.69548,-5.63531 -6.04471,-7.19087 -10,-4.6875 -3.67869,-0.57907 -7.28291,1.45071 -9.4375,3.8125 -3.34789,-0.43978 -7.14309,3.37858 -10,1.8125 -6.82758,-9.22986 -20.06809,-5.90419 -28.90625,-1.9375 -2.44034,0.80181 -4.83417,3.34581 -4.125,-0.46875 -1.59355,-5.7119 -8.82449,-1.76247 -12.28125,-0.375 -1.12546,-0.15435 -1.45919,-4.06322 -4.09375,-3.71875 -4.74002,0.10298 -9.50338,1.53277 -14.09375,2.53125 -4.17527,5.36035 -12.39179,2.24371 -17.65625,6.25 -9.00991,-11.38514 -26.98034,-10.37094 -37.21875,-1.15625 -2.15925,1.76924 -4.11762,3.83379 -5.75,6.09375 -0.75075,-3.82511 2.8916,-14.4562 -0.97273,-13.56712 -5.48722,3.5053 -15.36089,1.18039 -17.68352,8.56712 0.44792,7.84375 0.89583,15.6875 1.34375,23.53125 -1.69785,0.66914 -7.26461,3.74991 -5.75,-0.625 1.72581,-10.81282 1.26306,-21.9664 2.1875,-32.90625 -5.15489,4.80815 -14.94442,0.81157 -18.1875,7.90625 0.0627,17.00038 1.61896,34.11571 2.21875,51.15625 6.66752,-3.49438 13.36772,-6.90994 20.03125,-10.40625 -0.90865,4.83508 4.00751,9.49575 8.5625,6.75 3.48702,-1.23326 7.13858,-3.74976 6.78125,-7.9375 7.72082,10.6046 23.49983,12.33981 34.03125,5.15625 4.4963,-2.27299 7.55959,-6.73599 10.9375,-9.9375 2.77756,-0.0905 1.01986,5.14205 1.6875,6.59375 -0.30631,3.72972 1.25098,9.43373 6.21875,7.84375 3.89244,-0.64089 7.13501,-4.09819 9.71875,-6.09375 4.79484,2.4467 13.32314,0.91535 12.75,-5.8125 1.79203,-0.14148 -2.33307,16.01527 4.375,11.21875 5.36677,-1.04613 13.04016,-4.53791 10.9375,-11.34375 -0.0922,-4.46912 0.15281,-1.8942 0.84375,0.8125 0.25332,3.61396 -0.89448,12.24459 5.1875,11.15625 9.56235,-3.94241 18.62723,-10.06985 24.46875,-18.875 0.7609,6.87723 1.51226,13.75593 2.34375,20.625 4.94577,-1.54235 10.52155,-3.93729 14.125,-7.03125 4.59605,1.65141 11.04074,-0.30365 13.34375,-4.65625 0.98143,-3.24444 -0.0779,-11.72055 1.875,-12.4375 2.73371,2.72297 8.07193,3.521 9.65625,6.8125 -1.90865,4.00558 -9.65564,4.83119 -7.0625,10.1875 0.74736,4.32435 5.85853,10.45096 10.15625,6.15625 6.97218,-5.80968 15.33892,-13.90963 12.84375,-24.03125 -0.33654,-2.54349 -2.79141,-5.3797 -3.84375,-6.8125 5.13082,-5.55088 2.44867,-13.94979 5.28125,-20.5 1.03854,-2.98941 0.30515,-7.63848 -3.90625,-6.96875 z M 513,583.375 c -0.7407,3.75037 -1.29804,7.52061 -3.125,10.9375 0.60653,-3.27881 -1.09643,-8.61898 1.28125,-10.75 0.5324,-0.15322 1.43254,-0.37173 1.84375,-0.1875 z m -85.21875,0.25 c 3.79463,-0.55791 7.40573,3.49276 7.34375,6.59375 -4.6829,-1.03787 -12.85512,-4.64003 -15.21875,1.78125 -1.36147,2.64699 -1.39984,6.88309 -2.4375,8.9375 -3.54435,-6.98279 2.56734,-16.9587 10.3125,-17.3125 z m 140.78125,3.1875 c 0.005,0.22879 0.53725,0.0227 0,0 z m -0.0312,0.0312 c 0.0356,-0.0859 -0.0859,0.0356 0,0 z m 0,0 0.0937,0 -0.0937,0 z"
           id="text3014"
           inkscape:connector-curvature="0" />
        <text
           xml:space="preserve"
           style="font-size:90.50440979px;font-style:normal;font-variant:normal;font-weight:normal;font-stretch:normal;line-height:125%;letter-spacing:0px;word-spacing:0px;fill:#abc837;fill-opacity:1;stroke:none;font-family:CrashLanding BB;-inkscape-font-specification:CrashLanding BB"
           x="367.51105"
           y="615.06458"
           id="text2985"
           sodipodi:linespacing="125%"><tspan
             sodipodi:role="line"
             id="tspan2987"
             x="367.51105"
             y="615.06458">Liquidus</tspan></text>
      </g>
    </g>
    <g
       id="g3839"
       transform="translate(0,-27.142857)">
      <path
         inkscape:connector-curvature="0"
         id="text3027"
         d="m 747.53125,562.34375 c -11.25027,1.27703 -25.73455,5.41868 -28.78125,18.03125 -3.15943,9.81488 4.26743,19.76269 13.53125,22.34375 3.30943,2.36144 -2.5337,4.78992 -4.03125,6.125 -3.56332,1.77211 -3.2255,6.06857 -0.90625,8.59375 0.77692,4.68938 6.72167,6.13792 9.6875,2.5 7.79849,-5.5009 15.67924,-15.62762 11.3125,-25.5 0.083,-2.25881 -5.64743,-4.84404 -1.59375,-4.90625 2.14676,-0.12804 6.28244,-3.1834 5.5625,0.9375 -0.59955,8.25128 0.86684,16.33604 0.84375,24.59375 0.22228,3.28207 2.30835,7.47588 5.90625,4.5625 5.24524,-1.01261 11.42297,-5.33701 9.1875,-11.4375 0.697,-8.57699 0.30966,-18.13726 1.65625,-26.125 3.07529,-1.14786 4.80463,-1.90023 3.28767,2.52792 -1.59947,12.06758 -3.19001,24.13591 -4.88142,36.19083 6.14222,0.36289 15.17321,-1.28905 15.34375,-9.03125 1.86917,-0.95074 5.47761,-4.25654 7.75,-3.25 0.28368,3.39278 0.10061,9.57219 5.34375,8.78125 2.867,0.12053 6.08662,-3.17267 7.53125,-3.53125 -0.36226,4.9982 0.84454,8.24093 6.0625,6.125 5.36764,0.19228 10.774,-4.59575 8.40625,-10.21875 0.33354,-3.01654 5.37648,-0.98524 7.3125,-1.34375 5.40964,-0.45056 11.98862,1.51513 16.21875,-2.875 0.93985,4.37182 -0.92353,9.23287 0.84375,13.25 4.14326,3.84067 10.14451,-0.81601 13.625,-3.5625 2.09133,-10.34234 0.97929,-22.5039 2.40625,-33.03125 6.38218,-0.63653 9.83322,-7.44914 8.09375,-13.3125 1.10171,-4.77182 -4.92725,-6.06735 -8.25,-4.1875 -6.4567,2.03632 -13.17421,2.88025 -19.78125,4.375 -2.96309,-1.3186 -5.81723,-4.61685 -9.75,-4.25 -9.9688,-0.1301 -19.37298,4.53498 -28.40625,8.4375 -2.9e-4,-3.55624 0.45043,-11.26357 -5.15625,-9.875 -5.86003,2.43909 -12.17997,4.77483 -17.96875,6.84375 0.7298,-3.34652 -1.52341,-7.35701 -5.4375,-6.21875 -4.53793,1.21294 -8.93794,2.58068 -13.59375,2.90625 -2.53386,0.29452 -6.87648,3.01878 -8.46875,1.78125 0.97565,-2.7193 1.23037,-6.79586 -2.90625,-6.25 z m 72.4375,22.28125 c -0.58868,2.84025 -1.87352,-0.96265 0,-0.59375 0.36211,-0.13065 1.05687,-0.2573 0,0.59375 z m 21.28125,3.96875 c 2.12879,0.55526 -0.17728,4.6711 0.1875,5.84375 -1.75479,-1.037 -9.50634,0.32448 -7.09375,-2.5 1.56517,-3.28783 3.34748,-3.33589 6.90625,-3.34375 z"
         style="font-size:90.50440979px;font-style:normal;font-variant:normal;font-weight:normal;font-stretch:normal;line-height:125%;letter-spacing:0px;word-spacing:0px;fill:#22280b;fill-opacity:1;stroke:none;font-family:CrashLanding BB;-inkscape-font-specification:CrashLanding BB" />
      <text
         xml:space="preserve"
         style="font-size:90.50440979px;font-style:normal;font-variant:normal;font-weight:normal;font-stretch:normal;line-height:125%;letter-spacing:0px;word-spacing:0px;fill:#f6ffd5;fill-opacity:1;stroke:none;font-family:CrashLanding BB;-inkscape-font-specification:CrashLanding BB"
         x="721.79675"
         y="615.06458"
         id="text2989"
         sodipodi:linespacing="125%"><tspan
           id="tspan2993"
           sodipodi:role="line"
           x="721.79675"
           y="615.06458">start</tspan></text>
    </g>
    <g
       id="g3844"
       transform="translate(0,-12.857143)">
      <path
         inkscape:connector-curvature="0"
         id="text3031"
         d="m 852.75,641.0625 c -7.14875,1.04212 -14.58325,2.60826 -20.53125,6.96875 0.009,-5.62027 -6.88498,-6.30502 -10.78125,-4.09375 -3.73617,-0.98345 -7.71782,1.60464 -8.96875,4.46875 -3.62341,-0.25599 -7.58457,1.32736 -11.46875,1.5 -1.71661,-0.32891 -5.16842,3.36067 -3.65625,0.21875 2.04096,-3.64801 -0.34669,-9.21601 -5.03125,-7.65625 -10.31738,-0.0955 -19.76171,6.40466 -25,14.9375 -1.1918,-4.07589 3.77054,-13.97073 -1.71875,-13.96875 -3.68454,-0.0279 -7.92641,3.3916 -10.78125,3 -0.85969,-5.2664 -8.10763,-3.29152 -11.65625,-2.25 -2.65673,0.68328 -5.32631,1.28675 -8.125,1.0625 1.56488,4.52228 -4.12333,1.87553 -6.59375,3.8125 -3.71141,1.69232 -10.0424,0.78597 -10.21875,6.4375 0.34014,6.87505 2.25877,13.45622 2.28929,20.42758 0.88864,8.04431 1.72618,16.09437 2.64821,24.13492 4.84755,-1.71024 11.78906,-2.08914 14.3125,-6.9375 4.55828,1.73375 11.00437,0.3293 13.375,-4.21875 0.35579,5.38686 -1.03737,13.10147 6.04798,8.41966 3.41718,-0.77425 7.30548,-2.83149 8.85827,-5.57591 4.41434,5.49273 12.86142,7.27904 19,3.6875 -1.83761,4.07874 1.10453,4.20374 4.28125,3.6875 5.37401,-0.0691 11.81994,-4.11563 10.125,-10.21875 1.23998,4.21697 -1.21152,13.9585 5.56203,9.87512 3.91925,-0.57867 8.24752,-2.58031 10.06297,-5.62512 5.47811,2.29462 15.15155,-1.05491 13.59375,-8.21875 0.61754,-2.58879 -0.0403,-7.66906 1.09375,-8.78125 2.73705,2.81041 8.17757,3.47347 9.8125,6.84375 -1.50693,3.92472 -8.30205,4.66979 -8.53905,8.14455 2.62535,3.33899 4.10614,11.29188 9.9453,9.29295 4.0022,-2.77241 8.33484,-7.74812 11.28125,-10.09375 4.10623,7.9164 14.59267,10.004 22.0625,5.8125 3.67277,-1.31897 7.10278,-4.54635 9.78125,-6.59375 9.60593,12.88655 30.39542,10.80525 40.28125,-0.5625 2.44771,-2.58148 4.50359,-5.6513 6,-8.90625 0.63875,6.33739 1.33239,12.66901 2.03125,19 5.2239,-0.4168 14.44966,-0.81322 14.125,-8.15625 -0.52436,-2.09532 -0.9879,-4.86371 2.15625,-4.3125 4.59991,0.58226 9.3665,0.35616 13.75,-0.4375 2.42169,3.76106 -0.76478,10.67049 2.875,13.09375 7.70452,-0.23552 13.36712,-6.77873 20.625,-8.625 4.42582,-2.95424 5.20641,-9.82975 3.84375,-14.375 -1.78085,-1.73955 1.23118,-1.20884 1.96875,0.28125 2.55862,2.59403 8.02685,3.3295 9.15625,6.65625 -1.87611,3.79916 -9.33508,4.47416 -7.125,9.5625 0.61079,4.50831 5.86005,10.99693 10.3438,6.5625 6.3113,-5.48682 13.8194,-12.25286 13.1562,-21.5625 0.047,-3.51556 -2.4562,-7.26776 -4.2188,-9.25 5.2011,-5.66437 2.4116,-14.21842 5.3438,-20.90625 1.4935,-3.50024 -1.3271,-7.89765 -5.2812,-6.40625 -5.7945,0.51759 -12.7916,3.33163 -17.12505,5.0625 0.80819,-3.69272 -3.76893,-5.38679 -6.40625,-3.375 -7.91608,1.48661 -16.0409,3.70589 -23.78125,4.875 -6.41534,-7.82429 -17.88614,-3.70565 -25.875,-0.9375 -4.00094,1.2688 -8.27128,3.98339 -11.96875,4.65625 -10.18961,-12.63944 -31.29108,-9.62351 -40.71875,2.5 -1.32747,1.3657 -2.87095,3.78358 -3.625,4.875 2.19233,-4.95042 5.28592,-16.93108 -4.21875,-15.40625 -10.38401,0.22988 -19.41799,7.2658 -24.46875,16.03125 -0.21362,-5.48241 2.93235,-10.74109 2.125,-16.15625 -0.50571,-1.68481 -2.32458,-2.58921 -4.03125,-2.28125 z m -57.25,15.09375 c 0.78056,1.34373 -0.69809,4.81458 -0.5625,1.5625 0.031,-0.42295 0.4162,-1.98313 0.5625,-1.5625 z m 190.34375,5.875 c 0.25379,3.00562 -3.61968,1.17818 -5.0625,3.25 -1.7946,1.09723 -4.78274,-0.74595 -1.46875,-1.71875 1.83801,-0.14629 6.2915,-3.37516 6.53125,-1.53125 z m -77.5,0.15625 c 8.04295,0.35213 9.1884,11.83814 4.3125,16.71875 -3.47705,5.79763 -14.65047,6.49347 -15.78125,-1.34375 -1.70201,-7.07368 4.08891,-15.23949 11.46875,-15.375 z m -66.5625,0.0625 c -0.11981,0.14551 -0.0372,-0.12113 0,0 z m -0.125,0.21875 c 0.36303,-0.006 -0.004,0.94623 0,0 z m 105.875,0 c -1.8742,4.5251 -2.44562,0.0549 0,0 z M 842.0625,662.625 c 0.0333,0.0667 0.3,0.6 0,0 z m 119.03125,9.34375 c -2.2137,0.56924 0.70735,-2.04948 0,0 z m -94.0625,4.5625 c 0.94365,3.34927 5.78328,3.00058 7.40625,2.28125 -1.60174,1.91616 -5.55348,4.89623 -7.65625,2.75 -0.0392,-1.6509 -0.0756,-3.61918 0.25,-5.03125 z M 784.75,678.5 c 0.0397,2.77155 -6.72894,3.94224 -5.65625,1.21875 1.82894,0.0499 4.65783,-1.81987 5.65625,-1.21875 z"
         style="font-size:90.50440979px;font-style:normal;font-variant:normal;font-weight:normal;font-stretch:normal;line-height:125%;letter-spacing:0px;word-spacing:0px;fill:#22280b;fill-opacity:1;stroke:none;font-family:CrashLanding BB;-inkscape-font-specification:CrashLanding BB" />
      <text
         sodipodi:linespacing="125%"
         id="text2997"
         y="693.63599"
         x="721.79675"
         style="font-size:90.50440979px;font-style:normal;font-variant:normal;font-weight:normal;font-stretch:normal;line-height:125%;letter-spacing:0px;word-spacing:0px;fill:#f6ffd5;fill-opacity:1;stroke:none;font-family:CrashLanding BB;-inkscape-font-specification:CrashLanding BB"
         xml:space="preserve"><tspan
           y="693.63599"
           x="721.79675"
           sodipodi:role="line"
           id="tspan2999">highscores</tspan></text>
    </g>
    <g
       id="g3849">
      <path
         inkscape:connector-curvature="0"
         id="text3035"
         d="m 815.1875,721.78125 c -8.95913,2.30961 -18.54237,5.0309 -27.5625,5.6875 -6.75523,-7.50994 -17.85279,-3.25367 -25.875,-0.53125 -2.04176,0.0862 -7.18072,4.24537 -7.375,2.15625 1.10467,-4.34999 -3.49305,-6.94174 -7.21875,-5.5625 -21.93638,1.5953 -35.50756,29.1193 -25.6875,48.1875 5.25912,8.19405 17.01853,7.93641 24.40625,2.84375 2.83179,-1.64431 5.3236,-3.80802 7.4375,-6.28125 1.03029,4.702 -1.20174,13.53349 6.2744,10.22691 5.14879,0.10965 10.77502,-4.11904 8.7256,-9.69566 -0.79675,-3.74337 5.29386,-1.64792 7.1875,-1.9375 3.08106,1.05977 6.53653,-1.32325 9.25,-0.4375 1.82958,3.97818 -0.82566,10.41144 2.65625,12.84375 7.69836,-0.33555 13.4398,-6.73227 20.6875,-8.6875 2.87612,-1.1009 3.92496,-6.64466 4.15625,-7.34375 1.8304,4.76473 -0.87385,11.18369 3.09375,14.96875 4.12428,1.60177 7.84577,-2.58155 11.53125,-3.90625 6.88061,-4.05772 12.94397,-9.61426 17,-16.5 0.41655,7.14584 0.8343,14.29161 1.25,21.4375 5.35309,-2.25674 15.29254,-3.19074 14.65625,-11.15625 -0.37814,-6.75021 -0.0324,-14.47463 1.1875,-20.78125 2.38712,-2.28764 3.49736,0.5996 3.1875,2.78125 -0.0123,10.17805 0.94762,20.33155 1.34375,30.5 4.79074,-3.49891 14.15861,-2.90323 14.90625,-10.3125 -0.28328,-9.70651 0.30617,-20.48005 1.40625,-29.65625 6.33496,-0.72423 9.59639,-7.55271 7.90625,-13.3125 0.98839,-4.80042 -4.93193,-5.99114 -8.25,-4.15625 -5.63319,2.26573 -11.76913,1.63972 -17.34375,4.25 -2.3314,1.14094 -2.72029,-0.0497 -3.3125,-1.9375 -4.6043,-4.09326 -10.68207,2.1494 -15.5,1.71875 -7.69181,-7.01353 -19.97679,-2.57387 -27.3125,-0.0625 1.06373,-2.32477 0.39438,-5.76263 -2.8125,-5.34375 z m -7.34375,19.5 c 1.1497,3.07279 -4.96046,2.94575 -7.21875,4.0625 -2.34915,-0.51006 2.70672,-2.27245 3.6875,-2.8125 1.13942,-0.54286 2.2402,-1.18468 3.53125,-1.25 z m 23.34375,0.5 c -0.41349,3.82463 -1.36474,7.63103 -3.09375,11.09375 0.63921,-3.29658 -1.19382,-8.79164 1.4375,-10.78125 0.54496,-0.11176 1.12664,-0.20541 1.65625,-0.3125 z m -61.8125,1.53125 c -0.91025,3.16209 -1.76792,-1.27447 0.34375,-0.78125 l 0.125,-0.0312 -0.46875,0.8125 z M 750.875,752 c 1.04485,1.7372 1.51378,5.11058 1.15625,6.09375 -0.87469,-2.01483 -5.12958,-1.96725 -2.53125,-4.34375 0.69302,-0.7382 0.5187,-4.85476 1.375,-1.75 z m 32.5625,-0.0312 c -2.2137,0.56924 0.70735,-2.04948 0,0 z m 28.25,3.09375 c 0.98588,2.38493 -1.48688,0.12194 0,0 z m -76,1.46875 c 0.76176,3.62265 6.38492,2.56501 7.1875,2.5625 -1.35271,1.3229 -6.58578,5.49363 -7.4375,1.75 -0.12178,-1.42415 0.0622,-3.02243 0.25,-4.3125 z"
         style="font-size:90.50440978999999700px;font-style:normal;font-variant:normal;font-weight:normal;font-stretch:normal;line-height:125%;letter-spacing:0px;word-spacing:0px;fill:#22280b;fill-opacity:1;stroke:none;font-family:CrashLanding BB;-inkscape-font-specification:CrashLanding BB" />
      <text
         xml:space="preserve"
         style="font-size:90.50440978999999700px;font-style:normal;font-variant:normal;font-weight:normal;font-stretch:normal;line-height:125%;letter-spacing:0px;word-spacing:0px;fill:#f6ffd5;fill-opacity:1;stroke:none;font-family:CrashLanding BB;-inkscape-font-specification:CrashLanding BB"
         x="721.79675"
         y="773.63599"
         id="text3001"
         sodipodi:linespacing="125%"><tspan
           id="tspan3003"
           sodipodi:role="line"
           x="721.79675"
           y="773.63599">credit</tspan></text>
    </g>
    <path
       style="font-size:medium;font-style:normal;font-variant:normal;font-weight:normal;font-stretch:normal;text-indent:0;text-align:start;text-decoration:none;line-height:normal;letter-spacing:normal;word-spacing:normal;text-transform:none;direction:ltr;block-progression:tb;writing-mode:lr-tb;text-anchor:start;baseline-shift:baseline;color:#000000;fill:url(#radialGradient3837);fill-opacity:1;stroke:none;stroke-width:1px;marker:none;visibility:visible;display:inline;overflow:visible;enable-background:accumulate;font-family:Sans;-inkscape-font-specification:Sans;opacity:0.57079646"
       d="m 585.21875,382.36218 0,551.4375 1,0 0,-551.4375 -1,0 z"
       id="path3057"
       inkscape:connector-curvature="0" />
  </g>
  <g
     inkscape:groupmode="layer"
     id="layer3"
     inkscape:label="transition"
     style="display:none">
    <rect
       style="fill:#000000;fill-opacity:1;stroke:none"
       id="rect3855"
       width="1366"
       height="768.57141"
       x="0"
       y="0.85729444" />
    <path
       style="fill:#000000;fill-opacity:1;stroke:none"
       d="m 682.71875,354 c -22.9767,0.0119 -39.99796,27.59581 -29.5,48.125 7.96423,18.68633 34.2384,26.26755 50.6875,13.84375 16.59372,-11.21869 19.57494,-38.09432 4.65625,-51.84375 -6.69913,-6.78988 -16.28142,-10.60514 -25.84375,-10.125 z"
       id="path3859"
       inkscape:connector-curvature="0" />
    <path
       sodipodi:type="arc"
       style="fill:#677821;fill-opacity:1;stroke:none"
       id="path3857"
       sodipodi:cx="684.28571"
       sodipodi:cy="388"
       sodipodi:rx="61.42857"
       sodipodi:ry="61.42857"
       d="m 745.71428,388 a 61.42857,61.42857 0 1 1 -122.85714,0 61.42857,61.42857 0 1 1 122.85714,0 z"
       transform="matrix(0.44186045,0,0,0.44186045,381.92692,216.55815)" />
  </g>
  <g
     inkscape:groupmode="layer"
     id="layer4"
     inkscape:label="loading">
    <g
       id="g3882"
       transform="translate(351.42857,437.14285)"
       inkscape:export-filename="C:\prjs\liquidus2\src\liquidus\liquidus\pages\game\images\loading.png"
       inkscape:export-xdpi="90"
       inkscape:export-ydpi="90">
      <path
         inkscape:connector-curvature="0"
         id="text3874"
         d="m 402.3125,219.25 c -3.91255,2.07166 -8.57838,2.95243 -12.75,4.71875 -1.96126,0.86998 -2.87138,3.95919 -4.5,0.8125 -9.4909,-8.48911 -25.38292,-2.52572 -30.09375,8.40625 -1.0639,-4.0354 3.97103,-15.3925 -2.84986,-12.58968 -5.02545,0.50561 -13.07875,2.62497 -11.49389,9.37093 1.62595,10.17939 1.18108,20.73858 2.03125,31.0625 5.0142,-1.99769 9.9684,-6.02236 14.875,-7.15625 6.37245,7.48812 18.73747,5.17876 25.03125,0.5 -0.40192,5.15457 5.87288,6.23976 9.34375,3.8125 1.63055,-1.48289 1.80799,-5.83176 5.21875,-6.59375 0.21513,2.40987 1.62026,6.00365 5.0625,5.3125 2.33608,-0.46866 5.12919,-1.72688 3.96119,2.37155 3.39679,0.29994 8.75744,-2.76236 12.35131,-5.2778 2.07425,-1.10811 4.85721,-4.81615 5.875,-5.125 -0.76839,4.00389 0.315,11.01357 5.9375,9.34375 2.32645,0.57202 4.39542,-3.17084 5.3125,-0.0312 3.6247,3.29255 7.88913,-1.51929 10.875,-3.0625 2.39797,0.71775 5.54549,-0.63512 7.375,-0.34375 2.75203,3.496 7.87803,3.25707 11.4375,3.21875 4.14006,4.53815 13.53458,-1.10068 11.875,-6.90625 0.8519,-7.91978 1.83571,-15.82348 2.625,-23.75 -3.23463,2.65483 -5.80915,3.9754 -3.75,-0.9375 1.41713,-3.68458 -1.35337,-7.31396 -5.3125,-6.21875 -4.75716,-0.0284 -9.68666,2.75287 -12.84375,5.4375 0.74712,-5.04453 -5.09056,-6.98641 -8.75,-4.46875 -3.9145,-0.11422 -7.29118,3.61147 -10.78125,3.625 0.57531,-4.90551 -5.60932,-4.42359 -8.3125,-2.375 -3.76162,2.37502 -6.77915,-2.58535 -10.875,-1.625 -4.77272,0.0299 -9.26173,2.08579 -13.5,4.03125 0.15162,-2.25042 -0.32311,-5.85368 -3.375,-5.5625 z m -29.5,16.4375 c 5.23223,0.18193 4.01549,8.3357 0.25,9.96875 -8.15576,3.76872 -7.45029,-9.13344 -0.25,-9.96875 z"
         style="font-size:57.76067351999999700px;font-style:normal;font-variant:normal;font-weight:normal;font-stretch:normal;line-height:125%;letter-spacing:0px;word-spacing:0px;fill:#ffffff;fill-opacity:1;stroke:none;font-family:CrashLanding BB;-inkscape-font-specification:CrashLanding BB" />
      <text
         sodipodi:linespacing="125%"
         id="text3870"
         y="254.29689"
         x="343.73425"
         style="font-size:57.76067351999999700px;font-style:normal;font-variant:normal;font-weight:normal;font-stretch:normal;line-height:125%;letter-spacing:0px;word-spacing:0px;fill:#4d4d4d;fill-opacity:1;stroke:none;font-family:CrashLanding BB;-inkscape-font-specification:CrashLanding BB"
         xml:space="preserve"><tspan
           y="254.29689"
           x="343.73425"
           id="tspan3872"
           sodipodi:role="line">Loading</tspan></text>
    </g>
  </g>
</svg>
